<svg width="96" height="96" viewBox="0 0 339 362" fill="none" xmlns="http://www.w3.org/2000/svg">
<g filter="url(#filter0_d_2_19)">
<path d="M55.2 242C47.9667 242 40.15 242.583 31.75 243.75C23.35 244.917 17.8667 245.733 15.3 246.2L17.4 230.1C28.1333 228 35.3667 224.967 39.1 221C42.8333 216.8 44.7 209.8 44.7 200L45.05 53C45.05 45.5333 44.1167 40.5167 42.25 37.95C40.6167 35.3833 37.2333 34.1 32.1 34.1C29.7667 34.1 27.4333 34.2167 25.1 34.45C22.7667 34.6833 21.1333 34.8 20.2 34.8L19.5 33.4L21.95 18C24.75 18.2333 30 18.4667 37.7 18.7C45.4 18.9333 53.1 19.05 60.8 19.05C68.7333 19.05 76.7833 18.9333 84.95 18.7C93.35 18.2333 99.0667 17.8833 102.1 17.65C124.267 17.65 141.3 22.3167 153.2 31.65C165.1 40.75 171.05 53.8167 171.05 70.85C171.05 82.5167 167.433 93.0167 160.2 102.35C153.2 111.683 143.283 119.15 130.45 124.75C147.483 128.483 160.783 135.017 170.35 144.35C179.917 153.683 184.7 164.883 184.7 177.95C184.7 189.85 180.85 201.05 173.15 211.55C165.683 221.817 155.65 230.1 143.05 236.4C130.45 242.467 116.917 245.5 102.45 245.5C96.15 245.5 88.9167 244.917 80.75 243.75C67.45 242.583 58.9333 242 55.2 242ZM71.65 119.15C75.15 119.383 80.9833 119.85 89.15 120.55C97.55 121.25 104.433 121.717 109.8 121.95C109.8 122.65 112.833 121.483 118.9 118.45C124.967 115.183 130.45 110.283 135.35 103.75C140.25 96.9833 142.7 88 142.7 76.8C142.7 61.8667 137.683 50.7833 127.65 43.55C117.617 36.3167 102.1 32.7 81.1 32.7C78.7667 32.7 77.1333 33.2833 76.2 34.45C75.5 35.3833 75.0333 37.4833 74.8 40.75C73.4 63.15 72.35 89.2833 71.65 119.15ZM69.55 203.15C69.55 212.017 72.5833 218.317 78.65 222.05C84.7167 225.783 94.9833 227.65 109.45 227.65C123.45 227.65 134.417 223.8 142.35 216.1C150.517 208.167 154.6 197.55 154.6 184.25C154.6 171.65 150.633 161.383 142.7 153.45C134.767 145.283 122.983 139.8 107.35 137L70.95 137.7L69.55 203.15Z" fill="#0B8999"/>
</g>
<g filter="url(#filter1_d_2_19)">
<path d="M199.9 332.35C192.667 332.35 184.85 332.933 176.45 334.1C168.05 335.267 162.567 336.083 160 336.55L162.1 320.45C172.833 318.35 180.067 315.317 183.8 311.35C187.533 307.15 189.4 300.15 189.4 290.35L189.75 143.35C189.75 135.883 188.817 130.867 186.95 128.3C185.317 125.733 181.933 124.45 176.8 124.45C174.467 124.45 172.133 124.567 169.8 124.8C167.467 125.033 165.833 125.15 164.9 125.15L164.2 123.75L166.65 108.35C169.45 108.583 174.7 108.817 182.4 109.05C190.1 109.283 197.8 109.4 205.5 109.4C213.433 109.4 221.483 109.283 229.65 109.05C238.05 108.583 243.767 108.233 246.8 108C268.967 108 286 112.667 297.9 122C309.8 131.1 315.75 144.167 315.75 161.2C315.75 172.867 312.133 183.367 304.9 192.7C297.9 202.033 287.983 209.5 275.15 215.1C292.183 218.833 305.483 225.367 315.05 234.7C324.617 244.033 329.4 255.233 329.4 268.3C329.4 280.2 325.55 291.4 317.85 301.9C310.383 312.167 300.35 320.45 287.75 326.75C275.15 332.817 261.617 335.85 247.15 335.85C240.85 335.85 233.617 335.267 225.45 334.1C212.15 332.933 203.633 332.35 199.9 332.35ZM216.35 209.5C219.85 209.733 225.683 210.2 233.85 210.9C242.25 211.6 249.133 212.067 254.5 212.3C254.5 213 257.533 211.833 263.6 208.8C269.667 205.533 275.15 200.633 280.05 194.1C284.95 187.333 287.4 178.35 287.4 167.15C287.4 152.217 282.383 141.133 272.35 133.9C262.317 126.667 246.8 123.05 225.8 123.05C223.467 123.05 221.833 123.633 220.9 124.8C220.2 125.733 219.733 127.833 219.5 131.1C218.1 153.5 217.05 179.633 216.35 209.5ZM214.25 293.5C214.25 302.367 217.283 308.667 223.35 312.4C229.417 316.133 239.683 318 254.15 318C268.15 318 279.117 314.15 287.05 306.45C295.217 298.517 299.3 287.9 299.3 274.6C299.3 262 295.333 251.733 287.4 243.8C279.467 235.633 267.683 230.15 252.05 227.35L215.65 228.05L214.25 293.5Z" fill="#0B8999"/>
</g>
<defs>
<filter id="filter0_d_2_19" x="11.3" y="17.65" width="177.4" height="236.55" filterUnits="userSpaceOnUse" color-interpolation-filters="sRGB">
<feFlood flood-opacity="0" result="BackgroundImageFix"/>
<feColorMatrix in="SourceAlpha" type="matrix" values="0 0 0 0 0 0 0 0 0 0 0 0 0 0 0 0 0 0 127 0" result="hardAlpha"/>
<feOffset dy="4"/>
<feGaussianBlur stdDeviation="2"/>
<feComposite in2="hardAlpha" operator="out"/>
<feColorMatrix type="matrix" values="0 0 0 0 0 0 0 0 0 0 0 0 0 0 0 0 0 0 0.25 0"/>
<feBlend mode="normal" in2="BackgroundImageFix" result="effect1_dropShadow_2_19"/>
<feBlend mode="normal" in="SourceGraphic" in2="effect1_dropShadow_2_19" result="shape"/>
</filter>
<filter id="filter1_d_2_19" x="156" y="108" width="177.4" height="236.55" filterUnits="userSpaceOnUse" color-interpolation-filters="sRGB">
<feFlood flood-opacity="0" result="BackgroundImageFix"/>
<feColorMatrix in="SourceAlpha" type="matrix" values="0 0 0 0 0 0 0 0 0 0 0 0 0 0 0 0 0 0 127 0" result="hardAlpha"/>
<feOffset dy="4"/>
<feGaussianBlur stdDeviation="2"/>
<feComposite in2="hardAlpha" operator="out"/>
<feColorMatrix type="matrix" values="0 0 0 0 0 0 0 0 0 0 0 0 0 0 0 0 0 0 0.25 0"/>
<feBlend mode="normal" in2="BackgroundImageFix" result="effect1_dropShadow_2_19"/>
<feBlend mode="normal" in="SourceGraphic" in2="effect1_dropShadow_2_19" result="shape"/>
</filter>
</defs>
</svg>
